<svg width="46" height="22" viewBox="0 0 46 22" fill="none" xmlns="http://www.w3.org/2000/svg">
<path d="M8.32422 16.9194C8.08008 17.0708 7.8042 17.1465 7.49658 17.1465C7.18896 17.1465 6.92529 17.0684 6.70557 16.9121C6.45654 17.0684 6.22705 17.1465 6.01709 17.1465C5.80713 17.1465 5.63379 17.127 5.49707 17.0879C5.36035 17.0537 5.24072 17.0049 5.13818 16.9414C4.92822 16.8145 4.82324 16.6558 4.82324 16.4653C4.82324 16.3677 4.8501 16.2822 4.90381 16.209C5.01123 16.292 5.14795 16.3335 5.31396 16.3335C5.74854 16.3335 6.04883 16.1479 6.21484 15.7769V12.1953C6.21484 11.8145 6.02441 11.5264 5.64355 11.3311L5.32129 11.1626C5.75586 10.9624 6.02686 10.7451 6.13428 10.5107C6.18799 10.4033 6.21484 10.2715 6.21484 10.1152V7.02441C6.04883 6.64844 5.74854 6.46045 5.31396 6.46045C5.14795 6.46045 5.01123 6.50195 4.90381 6.58496C4.8501 6.51172 4.82324 6.42871 4.82324 6.33594C4.82324 6.23828 4.8501 6.14795 4.90381 6.06494C4.9624 5.98193 5.04053 5.91113 5.13818 5.85254C5.36279 5.71582 5.6167 5.64746 5.8999 5.64746C6.18799 5.64746 6.45654 5.72559 6.70557 5.88184C6.92529 5.72559 7.18896 5.64746 7.49658 5.64746C7.80908 5.64746 8.08496 5.72559 8.32422 5.88184C8.55371 5.72559 8.81006 5.64746 9.09326 5.64746C9.5083 5.64746 9.80615 5.78662 9.98682 6.06494C10.0405 6.15283 10.0674 6.24561 10.0674 6.34326C10.0674 6.44092 10.0381 6.52148 9.97949 6.58496C9.87207 6.50195 9.73779 6.46045 9.57666 6.46045C9.20068 6.46045 8.94922 6.64355 8.82227 7.00977V10.7744L12.1914 6.78271C12.1914 6.56299 12.0693 6.45312 11.8252 6.45312C11.5811 6.45312 11.3784 6.49951 11.2173 6.59229C11.1636 6.50439 11.1367 6.39209 11.1367 6.25537C11.1367 6.11377 11.21 5.97705 11.3564 5.84521C11.5029 5.71338 11.7056 5.64746 11.9644 5.64746C12.228 5.64746 12.4453 5.71094 12.6162 5.83789C12.7871 5.71094 12.9775 5.64746 13.1875 5.64746C13.3975 5.64746 13.5854 5.71338 13.7515 5.84521C13.9175 5.71338 14.0859 5.64746 14.2568 5.64746C14.4277 5.64746 14.562 5.66455 14.6597 5.69873C14.7622 5.72803 14.8501 5.76953 14.9233 5.82324C15.0942 5.9502 15.1797 6.0918 15.1797 6.24805C15.1797 6.4043 15.1553 6.51904 15.1064 6.59229C15.0039 6.55811 14.8867 6.54102 14.7549 6.54102C14.4863 6.54102 14.2886 6.56787 14.1616 6.62158C14.0396 6.67529 13.9199 6.73633 13.8027 6.80469C13.6904 6.87305 13.5757 6.95117 13.4585 7.03906L13.1216 7.28809C13.0093 7.37598 12.9189 7.45654 12.8506 7.52979L11.1733 9.5L14.2568 15.1104C14.6377 15.7939 14.9429 16.1846 15.1724 16.2822C15.2554 16.3164 15.3628 16.3335 15.4946 16.3335C15.6265 16.3335 15.7461 16.292 15.8535 16.209C15.9072 16.2822 15.9341 16.3677 15.9341 16.4653C15.9341 16.5581 15.9072 16.646 15.8535 16.729C15.7998 16.812 15.729 16.8828 15.6411 16.9414C15.4409 17.0781 15.187 17.1465 14.8794 17.1465C14.5718 17.1465 14.2935 17.0684 14.0444 16.9121C13.7954 17.0684 13.5122 17.1465 13.1948 17.1465C12.8774 17.1465 12.5942 17.0684 12.3452 16.9121C12.0962 17.0684 11.8228 17.1465 11.5249 17.1465C11.2319 17.1465 11.0024 17.0806 10.8364 16.9487C10.6753 16.812 10.5947 16.6509 10.5947 16.4653C10.5947 16.3677 10.6216 16.2822 10.6753 16.209C10.7827 16.292 10.9194 16.3335 11.0854 16.3335C11.3931 16.3335 11.6201 16.2139 11.7666 15.9746L9.50342 11.4482L8.82227 12.2466V15.7842C8.94922 16.1504 9.20068 16.3335 9.57666 16.3335C9.73779 16.3335 9.87207 16.292 9.97949 16.209C10.0381 16.2725 10.0674 16.353 10.0674 16.4507C10.0674 16.5483 10.0381 16.6411 9.97949 16.729C9.92578 16.8169 9.85498 16.8926 9.76709 16.9561C9.58154 17.083 9.35693 17.1465 9.09326 17.1465C8.81494 17.1465 8.55859 17.0708 8.32422 16.9194ZM6.90332 15.0591C7.14746 14.9663 7.28174 14.6465 7.30615 14.0996C7.33545 13.5527 7.3501 12.7959 7.3501 11.8291C7.3501 10.8623 7.34766 10.2202 7.34277 9.90283C7.34277 9.58057 7.34033 9.32178 7.33545 9.12646C7.3208 8.55029 7.26465 8.20361 7.16699 8.08643C7.07422 7.96436 6.98633 7.88379 6.90332 7.84473C6.90332 9.54395 6.87402 10.5107 6.81543 10.7451C6.74707 10.9404 6.58105 11.0796 6.31738 11.1626C6.61035 11.2651 6.77637 11.3896 6.81543 11.5361C6.87402 11.7705 6.90332 12.6274 6.90332 14.1069V15.0591ZM12.0669 15.0591C12.1255 14.981 12.1548 14.8662 12.1548 14.7148C12.1548 14.3828 12.04 14.0044 11.8105 13.5796L10.3823 10.6499L10.0527 10.9941L12.0669 15.0591ZM16.4395 16.9487C16.2588 17.0806 16.0513 17.1465 15.8169 17.1465C15.5874 17.1465 15.4043 17.0879 15.2676 16.9707C15.126 16.8486 15.0552 16.7095 15.0552 16.5532C15.0552 16.397 15.0796 16.2822 15.1284 16.209C15.27 16.292 15.4434 16.3335 15.6484 16.3335C15.8584 16.3335 16.0146 16.3066 16.1172 16.2529C16.2246 16.1943 16.3271 16.1162 16.4248 16.0186L17.4648 12.9351L17.6113 12.4297C17.6553 12.2783 17.6772 12.1392 17.6772 12.0122C17.6772 11.5679 17.4673 11.2847 17.0474 11.1626C17.4331 11.0161 17.7041 10.8574 17.8604 10.6865C18.1045 10.418 18.2974 10.064 18.439 9.62451L19.2446 6.92188C19.0884 6.71191 18.9028 6.60693 18.688 6.60693C18.4731 6.60693 18.2729 6.65332 18.0874 6.74609C18.0386 6.6582 18.0142 6.56055 18.0142 6.45312C18.0142 6.34082 18.0361 6.23584 18.0801 6.13818C18.1289 6.04053 18.1948 5.95508 18.2778 5.88184C18.4634 5.72559 18.7271 5.64746 19.0688 5.64746C19.4106 5.64746 19.7012 5.75 19.9404 5.95508C20.1846 5.75 20.4873 5.64746 20.8486 5.64746C21.2148 5.64746 21.5054 5.74512 21.7202 5.94043C22.0327 5.74512 22.3501 5.64746 22.6724 5.64746C22.9946 5.64746 23.2437 5.7085 23.4194 5.83057C23.6001 5.95264 23.6904 6.11865 23.6904 6.32861C23.6904 6.42627 23.6611 6.51172 23.6025 6.58496C23.4902 6.50195 23.3584 6.46045 23.207 6.46045C22.8799 6.46045 22.6675 6.68262 22.5698 7.12695L23.5073 10.1226C23.6245 10.4985 23.9175 10.7915 24.3862 11.0015C24.5181 11.0601 24.6523 11.1138 24.7891 11.1626C24.3008 11.3237 24.0566 11.5654 24.0566 11.8877C24.0566 12.0098 24.0762 12.1172 24.1152 12.21L25.5142 15.96C25.729 16.1846 25.9463 16.2969 26.166 16.2969C26.3857 16.2969 26.5566 16.2554 26.6787 16.1724C26.7324 16.2114 26.7593 16.2847 26.7593 16.3921C26.7593 16.4995 26.7422 16.5996 26.708 16.6924C26.6738 16.7803 26.6201 16.8584 26.5469 16.9268C26.3906 17.0732 26.1611 17.1465 25.8584 17.1465C25.5557 17.1465 25.292 17.0635 25.0674 16.8975C24.8135 17.0635 24.5254 17.1465 24.2031 17.1465C23.8857 17.1465 23.6123 17.0659 23.3828 16.9048C23.1631 17.0659 22.9043 17.1465 22.6064 17.1465C22.3086 17.1465 22.062 17.0854 21.8667 16.9634C21.6714 16.8364 21.5688 16.6582 21.5591 16.4287C21.5591 16.292 21.5859 16.2065 21.6396 16.1724C21.7715 16.2554 21.9058 16.2969 22.0425 16.2969C22.3306 16.2969 22.5332 16.2383 22.6504 16.1211L22.0938 14.2534H18.1313L17.6479 15.8721C17.8481 16.1797 18.0898 16.3335 18.373 16.3335C18.6611 16.3335 18.876 16.292 19.0176 16.209C19.0713 16.2969 19.0981 16.4189 19.0981 16.5752C19.0981 16.7266 19.0225 16.8608 18.8711 16.978C18.7197 17.0903 18.5244 17.1465 18.2852 17.1465C18.0459 17.1465 17.8262 17.0854 17.626 16.9634C17.4502 17.0854 17.2476 17.1465 17.0181 17.1465C16.7935 17.1465 16.6006 17.0806 16.4395 16.9487ZM21.7935 13.2646L20.0942 7.61768L18.4243 13.2646H21.7935ZM23.1924 15.0591C23.2803 15.0591 23.3242 14.9614 23.3242 14.7661C23.3242 14.4243 23.2729 14.0923 23.1704 13.77L22.8921 12.9131C22.6968 12.2686 22.5991 11.8633 22.5991 11.6973C22.5942 11.4238 22.7139 11.2432 22.958 11.1553C22.6211 11.0869 22.416 10.9819 22.3428 10.8403C22.3086 10.7817 22.2793 10.7354 22.2549 10.7012C22.2354 10.667 22.2134 10.6279 22.189 10.584C22.1694 10.5352 22.145 10.4741 22.1157 10.4009C22.0864 10.3276 22.0474 10.2227 21.9985 10.0859L21.5444 8.71631C21.437 8.37451 21.2783 8.11572 21.0684 7.93994C21.0049 7.88623 20.9463 7.85449 20.8926 7.84473C21.2197 9.02637 21.4346 9.7832 21.5371 10.1152C22.2451 12.293 22.6699 13.5845 22.8115 13.9897L23.1924 15.0591ZM25.353 15.7183L25.3677 15.7622L25.353 15.7183ZM30.3848 16.9121C30.1357 17.0684 29.8525 17.1465 29.5352 17.1465C29.2178 17.1465 28.9346 17.0684 28.6855 16.9121C28.4365 17.0684 28.2046 17.1465 27.9897 17.1465C27.7798 17.1465 27.6064 17.127 27.4697 17.0879C27.333 17.0537 27.2134 17.0049 27.1108 16.9414C26.9009 16.8145 26.7959 16.6558 26.7959 16.4653C26.7959 16.3677 26.8228 16.2822 26.8765 16.209C26.9839 16.292 27.1206 16.3335 27.2866 16.3335C27.7212 16.3335 28.0215 16.1479 28.1875 15.7769V12.1953C28.1875 11.9707 28.1411 11.8047 28.0483 11.6973C27.9019 11.5166 27.6504 11.3384 27.2939 11.1626C27.626 11.0112 27.8408 10.877 27.9385 10.7598C28.1045 10.5693 28.1875 10.3545 28.1875 10.1152V7.02441C28.0215 6.64844 27.7212 6.46045 27.2866 6.46045C27.1206 6.46045 26.9839 6.50195 26.8765 6.58496C26.8228 6.51172 26.7959 6.42871 26.7959 6.33594C26.7959 6.23828 26.8228 6.14795 26.8765 6.06494C26.9351 5.98193 27.0132 5.91113 27.1108 5.85254C27.3354 5.71582 27.5918 5.64746 27.8799 5.64746C28.1729 5.64746 28.4414 5.72803 28.6855 5.88916C28.9395 5.72803 29.2227 5.64746 29.5352 5.64746C29.8477 5.64746 30.1309 5.72803 30.3848 5.88916C30.6289 5.72803 30.8584 5.64746 31.0732 5.64746C31.2881 5.64746 31.4639 5.66699 31.6006 5.70605C31.7373 5.74023 31.8569 5.78906 31.9595 5.85254C32.1694 5.97949 32.2744 6.13818 32.2744 6.32861C32.2744 6.42627 32.2476 6.51172 32.1938 6.58496C32.0864 6.50195 31.9497 6.46045 31.7837 6.46045C31.3491 6.46045 31.0488 6.64844 30.8828 7.02441V10.1152C30.8828 10.3545 30.9341 10.5327 31.0366 10.6499C31.1978 10.8403 31.4443 11.0112 31.7764 11.1626C31.4199 11.3384 31.1929 11.4824 31.0952 11.5947C30.9536 11.7705 30.8828 11.9707 30.8828 12.1953V15.7769C31.0488 16.1479 31.3491 16.3335 31.7837 16.3335C31.9497 16.3335 32.0864 16.292 32.1938 16.209C32.2476 16.2822 32.2744 16.3677 32.2744 16.4653C32.2744 16.5581 32.2451 16.646 32.1865 16.729C32.1328 16.812 32.0571 16.8828 31.9595 16.9414C31.7349 17.0781 31.4785 17.1465 31.1904 17.1465C30.9023 17.1465 30.6338 17.0684 30.3848 16.9121ZM28.8906 15.0591C29.1348 14.9663 29.269 14.6465 29.2935 14.0996C29.3228 13.5527 29.3374 12.7959 29.3374 11.8291C29.3374 10.8623 29.335 10.2202 29.3301 9.90283C29.3301 9.58057 29.3276 9.32178 29.3228 9.12646C29.3081 8.55029 29.252 8.20361 29.1543 8.08643C29.0615 7.96436 28.9736 7.88379 28.8906 7.84473C28.8906 9.54395 28.8613 10.5107 28.8027 10.7451C28.7344 10.9404 28.5684 11.0796 28.3047 11.1626C28.5977 11.2651 28.7637 11.3896 28.8027 11.5361C28.8613 11.7705 28.8906 12.6274 28.8906 14.1069V15.0591ZM37.0571 16.9194C36.8032 17.0708 36.5103 17.1465 36.1782 17.1465C35.8511 17.1465 35.563 17.0684 35.314 16.9121C35.0649 17.0684 34.833 17.1465 34.6182 17.1465C34.4082 17.1465 34.2349 17.127 34.0981 17.0879C33.9614 17.0537 33.8442 17.0049 33.7466 16.9414C33.5317 16.8145 33.4243 16.6558 33.4243 16.4653C33.4243 16.3677 33.4512 16.2822 33.5049 16.209C33.6123 16.292 33.749 16.3335 33.915 16.3335C34.3496 16.3335 34.6499 16.1479 34.8159 15.7769V12.188C34.8159 11.9683 34.772 11.8047 34.6841 11.6973C34.5327 11.5166 34.2788 11.3384 33.9224 11.1626C34.2544 11.0112 34.4692 10.877 34.5669 10.7598C34.7329 10.5693 34.8159 10.3545 34.8159 10.1152V7.02441C34.6499 6.64844 34.3496 6.46045 33.915 6.46045C33.7148 6.46045 33.561 6.50195 33.4536 6.58496C33.3999 6.51172 33.373 6.42871 33.373 6.33594C33.373 6.23828 33.4023 6.14795 33.4609 6.06494C33.5244 5.98193 33.6099 5.91113 33.7173 5.85254C33.9468 5.71582 34.208 5.64746 34.501 5.64746C34.7988 5.64746 35.0698 5.72803 35.314 5.88916C35.5679 5.72803 35.8584 5.64746 36.1855 5.64746C36.5176 5.64746 36.8179 5.74512 37.0864 5.94043C37.6284 5.74512 38.2729 5.64746 39.02 5.64746C39.4937 5.64746 39.8989 5.69629 40.2358 5.79395L40.8657 5.96973C40.9438 5.98926 41.0195 5.99902 41.0928 5.99902C41.2295 5.99902 41.2979 5.90137 41.2979 5.70605C41.2979 5.65723 41.2808 5.57422 41.2466 5.45703C41.3833 5.43262 41.5566 5.42041 41.7666 5.42041C41.9766 5.42041 42.1548 5.49121 42.3013 5.63281C42.4478 5.76953 42.521 5.97461 42.521 6.24805C42.521 6.5166 42.4673 6.72412 42.3599 6.87061C42.5063 7.09521 42.5796 7.35889 42.5796 7.66162C42.5796 7.96436 42.4819 8.22559 42.2866 8.44531C42.3501 8.60156 42.3818 8.76025 42.3818 8.92139C42.3818 9.07764 42.3599 9.2168 42.3159 9.33887C42.272 9.46094 42.2158 9.56348 42.1475 9.64648C42.0107 9.8125 41.8472 9.89551 41.6567 9.89551C41.4858 9.89551 41.3223 9.854 41.166 9.771C41.2295 9.63916 41.2612 9.48291 41.2612 9.30225C41.2612 9.1167 41.2515 8.96289 41.2319 8.84082C41.2173 8.71387 41.1929 8.58203 41.1587 8.44531C41.0903 8.1377 40.9756 7.83496 40.8145 7.53711C40.4922 6.93652 39.9868 6.63623 39.2983 6.63623C38.4438 6.63623 37.8481 6.8584 37.5112 7.30273V10.6865C37.6675 10.7744 37.8115 10.8184 37.9434 10.8184C38.0752 10.8184 38.1826 10.8159 38.2656 10.811C38.3486 10.8062 38.4316 10.7988 38.5146 10.7891C38.7246 10.7646 38.8833 10.7256 38.9907 10.6719C39.2007 10.5742 39.3057 10.3545 39.3057 10.0127C39.3057 9.66602 39.2544 9.40723 39.1519 9.23633C39.23 9.16797 39.3521 9.13379 39.5181 9.13379C39.8452 9.13379 40.082 9.30225 40.2285 9.63916C40.2822 9.76123 40.3091 9.89062 40.3091 10.0273C40.3091 10.1592 40.2798 10.3081 40.2212 10.4741C40.4214 10.7036 40.5215 10.9771 40.5215 11.2944C40.5215 11.6069 40.4214 11.8779 40.2212 12.1074C40.2798 12.2734 40.3091 12.4248 40.3091 12.5615C40.3091 12.6934 40.2822 12.8203 40.2285 12.9424C40.1748 13.0645 40.1089 13.1621 40.0308 13.2354C39.8794 13.3721 39.7085 13.4404 39.5181 13.4404C39.3813 13.4404 39.2593 13.4014 39.1519 13.3232C39.2544 13.1523 39.3057 12.9521 39.3057 12.7227C39.3057 12.2686 39.1812 11.9878 38.9321 11.8804C38.7222 11.7974 38.4707 11.7559 38.1777 11.7559C37.8896 11.7559 37.6675 11.7998 37.5112 11.8877V15.7549C37.6968 16.1406 38.0459 16.3335 38.5586 16.3335C38.7246 16.3335 38.8613 16.292 38.9688 16.209C39.0225 16.2822 39.0493 16.3677 39.0493 16.4653C39.0493 16.5581 39.02 16.646 38.9614 16.729C38.9077 16.812 38.8296 16.8828 38.7271 16.9414C38.5073 17.0781 38.2437 17.1465 37.936 17.1465C37.6333 17.1465 37.3403 17.0708 37.0571 16.9194ZM35.519 15.0591C35.7632 14.9663 35.8999 14.6465 35.9292 14.0996C35.9536 13.5527 35.9658 12.7959 35.9658 11.8291C35.9658 10.8623 35.9634 10.2202 35.9585 9.90283C35.9585 9.58057 35.9561 9.32178 35.9512 9.12646C35.9365 8.55029 35.8804 8.20361 35.7827 8.08643C35.6899 7.96436 35.6021 7.88379 35.519 7.84473C35.519 9.54395 35.4897 10.5107 35.4312 10.7451C35.3628 10.9404 35.1968 11.0796 34.9331 11.1626C35.2261 11.2651 35.3921 11.3896 35.4312 11.5361C35.4897 11.7705 35.519 12.6274 35.519 14.1069V15.0591Z" fill="#CCCCCC"/>
<path d="M22.752 5.6375H19.008C18.9288 5.6375 18.864 5.71203 18.864 5.80313V6.13438C18.864 6.22547 18.9288 6.3 19.008 6.3H22.752C22.8312 6.3 22.896 6.22547 22.896 6.13438V5.80313C22.896 5.71203 22.8312 5.6375 22.752 5.6375ZM23.328 2.325C23.0895 2.325 22.896 2.54756 22.896 2.82188C22.896 2.89537 22.9104 2.96369 22.9356 3.02684L22.284 3.47609C22.1454 3.57133 21.9663 3.5175 21.8862 3.35602L21.1527 1.87988C21.249 1.78879 21.312 1.65215 21.312 1.49688C21.312 1.22256 21.1185 1 20.88 1C20.6415 1 20.448 1.22256 20.448 1.49688C20.448 1.65215 20.511 1.78879 20.6073 1.87988L19.8738 3.35602C19.7937 3.5175 19.6137 3.57133 19.476 3.47609L18.8253 3.02684C18.8496 2.96473 18.8649 2.89537 18.8649 2.82188C18.8649 2.54756 18.6714 2.325 18.4329 2.325C18.1944 2.325 18 2.54756 18 2.82188C18 3.09619 18.1935 3.31875 18.432 3.31875C18.4554 3.31875 18.4788 3.31461 18.5013 3.31047L19.152 5.30625H22.608L23.2587 3.31047C23.2812 3.31461 23.3046 3.31875 23.328 3.31875C23.5665 3.31875 23.76 3.09619 23.76 2.82188C23.76 2.54756 23.5665 2.325 23.328 2.325Z" fill="#B9AAFF"/>
<path d="M5.5 8L6.06129 9.72746H7.87764L6.40818 10.7951L6.96946 12.5225L5.5 11.4549L4.03054 12.5225L4.59182 10.7951L3.12236 9.72746H4.93871L5.5 8Z" fill="#B9AAFF"/>
<path d="M39 15L39.449 16.382H40.9021L39.7265 17.2361L40.1756 18.618L39 17.7639L37.8244 18.618L38.2735 17.2361L37.0979 16.382H38.551L39 15Z" fill="#B9AAFF"/>
</svg>
